<svg version="1" xmlns="http://www.w3.org/2000/svg" width="732" height="728" fill="#7952b3">
    <path d="M55 2c-12 3-22 9-33 20-7 7-9 10-13 18-9 18-8-15-8 322S0 666 9 684c4 8 6 11 13 18 11 11 21 17 34 20 7 2 12 2 307 2 335 0 305 1 322-8 18-8 31-24 37-44l3-7V60l-3-7c-6-20-19-36-37-44-17-9 13-8-322-8C71 0 62 0 55 2zm330 136c36 5 60 13 85 30a104 104 0 0 1 38 50c0 3 2 0 12-13l10-14 40 55c1 1-12 19-42 60l-43 59 10 10c22 22 32 46 32 78 0 35-12 63-37 87-12 12-25 20-43 27-19 8-40 13-68 17-15 2-54 5-56 4l80-111 81-111-7-5a150 150 0 0 0-37-17c0-1 3-3 7-4 34-15 57-41 64-72 2-13 1-39-2-46l-20 26-101 137-82 111-54-74-53-73-1 56v55l-20-27-20-27c-1-1 8-14 20-29l20-28V145h2a733 733 0 0 1 185-7zM245 525c34 46 46 63 44 63a911 911 0 0 1-90-6l-1-61v-60l47 63z"/>
    <path d="M312 210l-12 1-2 1v103h27c28-1 35-2 47-6 28-9 43-31 39-56s-22-39-54-43h-45z"/>
</svg>
